Coordinates
version=1
nRows=78
nColumns=6
inDegrees=yes

Units are S.I. units (second, meters, Newtons, ...)
If the header above contains a line with 'inDegrees', this indicates whether rotational values are in degrees (yes) or radians (no).

endheader
time	foot_tx	hip_flexion_r	knee_angle_r	ankle_angle_r	lumbar
     57.75000000	      0.20013249	    101.46870714	    -73.62581946	      8.32464515	     -8.77623484
     57.76000000	      0.20030567	    102.12826058	    -73.57736171	      8.73284823	     -8.50495971
     57.77000000	      0.20050704	    102.65217301	    -73.52522550	      9.15646117	     -8.30501397
     57.78000000	      0.20072406	    103.03560592	    -73.47635454	      9.59867740	     -8.17139103
     57.79000000	      0.20094365	    103.28598585	    -73.43207044	     10.05914730	     -8.08321321
     57.80000000	      0.20115830	    103.40571600	    -73.39319999	     10.53708847	     -8.02948274
     57.81000000	      0.20136696	    103.40544338	    -73.35706290	     11.02929303	     -7.98926208
     57.82000000	      0.20157739	    103.27874494	    -73.31700148	     11.53036675	     -7.97189870
     57.83000000	      0.20179068	    103.05161938	    -73.26484439	     12.03415015	     -7.93802163
     57.84000000	      0.20201201	    102.72665313	    -73.18912936	     12.53334356	     -7.88785359
     57.85000000	      0.20224598	    102.31256125	    -73.07750918	     13.02025049	     -7.81336460
     57.86000000	      0.20249409	    101.81951852	    -72.91842922	     13.48717102	     -7.70809562
     57.87000000	      0.20275748	    101.25386326	    -72.70173496	     13.92852357	     -7.57090199
     57.88000000	      0.20303414	    100.62227990	    -72.41868285	     14.33932203	     -7.40007394
     57.89000000	      0.20332012	     99.93150998	    -72.06150483	     14.71552733	     -7.19356359
     57.90000000	      0.20361005	     99.18518399	    -71.62312806	     15.05336057	     -6.95396654
     57.91000000	      0.20390231	     98.38671864	    -71.09784951	     15.34862405	     -6.68501670
     57.92000000	      0.20418765	     97.53477604	    -70.48289504	     15.59871469	     -6.39797368
     57.93000000	      0.20447957	     96.61899744	    -69.77526463	     15.79975915	     -6.11427171
     57.94000000	      0.20477671	     95.63663410	    -68.97312957	     15.94971133	     -5.84315566
     57.95000000	      0.20508320	     94.57818314	    -68.07589698	     16.04751718	     -5.59947486
     57.96000000	      0.20540394	     93.43951939	    -67.08377107	     16.09285415	     -5.38812104
     57.97000000	      0.20574632	     92.21848660	    -65.99795816	     16.08566534	     -5.20909850
     57.98000000	      0.20611042	     90.90729234	    -64.82384103	     16.02938293	     -5.06922659
     57.99000000	      0.20650047	     89.50685273	    -63.56635438	     15.92629091	     -4.96378809
     58.00000000	      0.20691029	     88.02091752	    -62.22938475	     15.77915905	     -4.88272178
     58.01000000	      0.20732586	     86.44843850	    -60.81852587	     15.59232729	     -4.82680938
     58.02000000	      0.20772971	     84.79058323	    -59.33824667	     15.36941155	     -4.79218733
     58.03000000	      0.20811675	     83.05197379	    -57.79133413	     15.11203452	     -4.77376854
     58.04000000	      0.20848591	     81.23671849	    -56.18005702	     14.82118562	     -4.76624490
     58.05000000	      0.20884326	     79.35081166	    -54.50615921	     14.49719781	     -4.76214059
     58.06000000	      0.20919373	     77.39559642	    -52.77266555	     14.14159552	     -4.75958290
     58.07000000	      0.20954203	     75.36990880	    -50.98413788	     13.75684336	     -4.75979389
     58.08000000	      0.20989126	     73.27444656	    -49.14675915	     13.34637960	     -4.76230369
     58.09000000	      0.21024423	     71.10730023	    -47.26723786	     12.91423796	     -4.77014258
     58.10000000	      0.21060077	     68.86793136	    -45.35224933	     12.46468716	     -4.78524507
     58.11000000	      0.21096248	     66.56226616	    -43.40776814	     12.00097144	     -4.80158651
     58.12000000	      0.21132848	     64.19212595	    -41.44119785	     11.52759699	     -4.82048515
     58.13000000	      0.21169973	     61.76740447	    -39.45908030	     11.04749308	     -4.83317245
     58.14000000	      0.21207858	     59.29356264	    -37.46954494	     10.56451554	     -4.83939765
     58.15000000	      0.21246492	     56.77375084	    -35.48088968	     10.08283713	     -4.84264807
     58.16000000	      0.21286039	     54.22473406	    -33.50116524	      9.60529868	     -4.83085731
     58.17000000	      0.21326150	     51.65598074	    -31.53960031	      9.13606934	     -4.80331667
     58.18000000	      0.21366489	     49.08936501	    -29.60581357	      8.67862871	     -4.74400170
     58.19000000	      0.21406680	     46.54088239	    -27.71041589	      8.23698504	     -4.64954966
     58.20000000	      0.21446447	     44.02795948	    -25.86311911	      7.81423642	     -4.51570104
     58.21000000	      0.21485075	     41.58341203	    -24.07540544	      7.41387878	     -4.31610727
     58.22000000	      0.21522757	     39.21476557	    -22.35587047	      7.03727360	     -4.06842820
     58.23000000	      0.21558127	     36.95730388	    -20.71420980	      6.68695487	     -3.74329198
     58.24000000	      0.21591729	     34.81841155	    -19.16094196	      6.36449856	     -3.35912031
     58.25000000	      0.21622113	     32.81820907	    -17.70355874	      6.07239634	     -2.90388828
     58.26000000	      0.21649525	     30.95898266	    -16.34719450	      5.81075723	     -2.39486222
     58.27000000	      0.21673405	     29.24322998	    -15.09192666	      5.57902096	     -1.83696818
     58.28000000	      0.21692423	     27.66009765	    -13.93499475	      5.37672229	     -1.24746976
     58.29000000	      0.21707076	     26.20637967	    -12.86834909	      5.19951296	     -0.62828814
     58.30000000	      0.21715593	     24.86497739	    -11.88624036	      5.04695032	      0.00219469
     58.31000000	      0.21719080	     23.62969826	    -10.97625196	      4.91281193	      0.64318016
     58.32000000	      0.21715351	     22.48611153	    -10.13087379	      4.79651168	      1.28619490
     58.33000000	      0.21704502	     21.42542872	     -9.33802559	      4.69323217	      1.92996989
     58.34000000	      0.21686258	     20.43905437	     -8.58756743	      4.59929958	      2.57278507
     58.35000000	      0.21660549	     19.51536184	     -7.87195673	      4.51214589	      3.20629610
     58.36000000	      0.21627529	     18.64852333	     -7.18529370	      4.42911713	      3.82727036
     58.37000000	      0.21587256	     17.83099724	     -6.52389075	      4.34887936	      4.42899043
     58.38000000	      0.21539878	     17.05974838	     -5.88629116	      4.27097662	      5.00955009
     58.39000000	      0.21485814	     16.32836436	     -5.27461980	      4.19743906	      5.56311262
     58.40000000	      0.21425925	     15.63761965	     -4.68940611	      4.12897150	      6.09251186
     58.41000000	      0.21363160	     14.98655252	     -4.14132784	      4.07103699	      6.59545216
     58.42000000	      0.21301627	     14.37709156	     -3.64085592	      4.02809193	      7.07190986
     58.43000000	      0.21246753	     13.81474901	     -3.20116765	      4.00500666	      7.52325249
     58.44000000	      0.21204294	     13.30599989	     -2.83949648	      4.00807328	      7.94960842
     58.45000000	      0.21178716	     12.87238238	     -2.57263895	      4.04289021	      8.37020805
     58.46000000	      0.21173309	     12.48103528	     -2.40513963	      4.11232199	      8.74330567
     58.47000000	      0.21188438	     12.13802301	     -2.34005257	      4.21747432	      9.07777809
     58.48000000	      0.21222368	     11.87425539	     -2.37903713	      4.35736127	      9.41212229
     58.49000000	      0.21271711	     11.64375782	     -2.49635085	      4.52342833	      9.70986076
     58.50000000	      0.21331265	     11.44607756	     -2.67360633	      4.70808464	      9.98023186
     58.51000000	      0.21396151	     11.25772886	     -2.88294409	      4.90107443	     10.21525505
     58.52000000	      0.21461957	     11.05017037	     -3.09876396	      5.09314102	     10.39400033
